<?xml version="1.0" encoding="iso-8859-1"?>
<!-- Generator: Adobe Illustrator 19.0.0, SVG Export Plug-In . SVG Version: 6.00 Build 0)  -->
<svg xmlns="http://www.w3.org/2000/svg" xmlns:xlink="http://www.w3.org/1999/xlink" version="1.1" id="Capa_1" x="0px" y="0px" viewBox="0 0 366.08 366.08" style="enable-background:new 0 0 366.08 366.08;" xml:space="preserve" width="512px" height="512px">
<g>
	<g>
		<path d="M345.055,134.144h-44.032v-15.36h20.48c3.072,0,5.12-2.048,5.12-5.12V83.456C326.623,37.376,289.247,0,243.167,0H99.807    c-46.08,0-83.456,37.376-83.456,83.456v30.208c0,3.072,2.048,5.12,5.12,5.12h22.528v181.248H21.471c-3.072,0-5.12,2.048-5.12,5.12    v28.16c0,18.432,14.848,32.768,32.768,32.768h244.224c18.432,0,32.768-14.848,32.768-32.768v-28.16c0-3.072-2.048-5.12-5.12-5.12    h-20.48V162.304h44.032c3.072,0,5.12-2.048,5.12-5.12v-17.92C350.175,136.192,347.615,134.144,345.055,134.144z M26.591,108.544    V83.456c0-40.448,32.768-73.216,73.216-73.216h142.848c40.96,0,73.728,32.768,73.728,73.216v25.088H26.591z M216.031,281.088    h13.312c3.072,0,5.12-2.048,5.12-5.12v-24.064c0-3.072-2.048-5.12-5.12-5.12h-11.776v-10.24c0-3.072-2.048-5.12-5.12-5.12h-81.92    c-3.072,0-5.12,2.048-5.12,5.12v33.792c0,11.776,5.12,22.528,13.312,29.696h-84.48V118.784h70.656v64.512    c0,3.072,2.048,5.12,5.12,5.12h82.944c3.072,0,5.12-2.048,5.12-5.12V153.6h23.04v3.584c0,3.072,2.048,5.12,5.12,5.12h44.544    v137.728h-86.528C209.887,294.912,213.983,288.256,216.031,281.088z M177.631,300.032h-12.8    c-16.384,0-29.696-13.312-29.696-29.696v-28.672h72.192v28.672C207.327,286.72,194.015,300.032,177.631,300.032z M217.567,270.848    c0-0.256,0-0.384,0-0.384v-13.44h6.656v13.824H217.567z M135.647,178.176v-0.512v-58.88h72.704v59.392H135.647z M241.631,139.264    v3.584h-23.04v-24.576h72.192v15.36h-44.032C244.191,134.144,241.631,136.192,241.631,139.264z M316.383,310.272v23.04    c0,12.288-10.24,22.528-22.528,22.528H49.631c-12.288,0-22.528-10.24-22.528-22.528v-23.04H316.383z M339.935,152.064h-88.064    v-7.68h88.064V152.064z" fill="#FFFFFF"/>
	</g>
</g>
<g>
	<g>
		<circle cx="210.911" cy="71.168" r="7.68" fill="#FFFFFF"/>
	</g>
</g>
<g>
	<g>
		<circle cx="182.751" cy="71.168" r="7.68" fill="#FFFFFF"/>
	</g>
</g>
<g>
	<g>
		<circle cx="154.079" cy="71.168" r="7.68" fill="#FFFFFF"/>
	</g>
</g>
<g>
	<g>
		<circle cx="125.407" cy="71.168" r="7.68" fill="#FFFFFF"/>
	</g>
</g>
<g>
</g>
<g>
</g>
<g>
</g>
<g>
</g>
<g>
</g>
<g>
</g>
<g>
</g>
<g>
</g>
<g>
</g>
<g>
</g>
<g>
</g>
<g>
</g>
<g>
</g>
<g>
</g>
<g>
</g>
</svg>
